<svg width="331" height="60" viewBox="0 0 331 60" fill="none" xmlns="http://www.w3.org/2000/svg">
<path d="M-1.62125e-05 58.9773V0.795475H20.3409C24.3939 0.795475 27.7367 1.49623 30.3693 2.89775C33.0019 4.28032 34.9621 6.14585 36.25 8.49434C37.5379 10.8239 38.1818 13.4091 38.1818 16.25C38.1818 18.75 37.7367 20.8144 36.8466 22.4432C35.9754 24.072 34.8201 25.3599 33.3807 26.3068C31.9602 27.2538 30.4167 27.9546 28.75 28.4091V28.9773C30.5303 29.0909 32.3201 29.7159 34.1193 30.8523C35.9185 31.9887 37.4242 33.6174 38.6363 35.7387C39.8485 37.8599 40.4545 40.4546 40.4545 43.5227C40.4545 46.4394 39.7917 49.0625 38.4659 51.3921C37.1401 53.7216 35.0473 55.5682 32.1875 56.9318C29.3276 58.2955 25.606 58.9773 21.0227 58.9773H-1.62125e-05ZM7.04544 52.7273H21.0227C25.625 52.7273 28.892 51.8371 30.8238 50.0568C32.7746 48.2576 33.75 46.0796 33.75 43.5227C33.75 41.5531 33.2481 39.7349 32.2443 38.0682C31.2405 36.3826 29.8106 35.0379 27.9545 34.0341C26.0985 33.0114 23.9015 32.5 21.3636 32.5H7.04544V52.7273ZM7.04544 26.3637H20.1136C22.2348 26.3637 24.1477 25.947 25.8523 25.1137C27.5757 24.2803 28.9394 23.1061 29.9432 21.5909C30.9659 20.0758 31.4773 18.2955 31.4773 16.25C31.4773 13.6932 30.5871 11.5246 28.8068 9.74434C27.0265 7.9451 24.2045 7.04548 20.3409 7.04548H7.04544V26.3637ZM117.122 29.8864C117.122 36.0227 116.014 41.3258 113.798 45.7955C111.582 50.2652 108.543 53.7121 104.679 56.1364C100.815 58.5606 96.4024 59.7727 91.4403 59.7727C86.4782 59.7727 82.0653 58.5606 78.2017 56.1364C74.3381 53.7121 71.2983 50.2652 69.0824 45.7955C66.8665 41.3258 65.7585 36.0227 65.7585 29.8864C65.7585 23.75 66.8665 18.447 69.0824 13.9773C71.2983 9.5076 74.3381 6.06063 78.2017 3.63638C82.0653 1.21214 86.4782 2.00272e-05 91.4403 2.00272e-05C96.4024 2.00272e-05 100.815 1.21214 104.679 3.63638C108.543 6.06063 111.582 9.5076 113.798 13.9773C116.014 18.447 117.122 23.75 117.122 29.8864ZM110.304 29.8864C110.304 24.8485 109.461 20.5966 107.776 17.1307C106.109 13.6648 103.846 11.0417 100.986 9.26138C98.1449 7.48108 94.9631 6.59093 91.4403 6.59093C87.9176 6.59093 84.7263 7.48108 81.8665 9.26138C79.0256 11.0417 76.7623 13.6648 75.0767 17.1307C73.41 20.5966 72.5767 24.8485 72.5767 29.8864C72.5767 34.9243 73.41 39.1762 75.0767 42.6421C76.7623 46.108 79.0256 48.7311 81.8665 50.5114C84.7263 52.2917 87.9176 53.1818 91.4403 53.1818C94.9631 53.1818 98.1449 52.2917 100.986 50.5114C103.846 48.7311 106.109 46.108 107.776 42.6421C109.461 39.1762 110.304 34.9243 110.304 29.8864ZM191.105 0.795475V58.9773H184.287L152.582 13.2955H152.014V58.9773H144.969V0.795475H151.787L183.605 46.5909H184.173V0.795475H191.105ZM239.158 58.9773H221.203V0.795475H239.953C245.597 0.795475 250.427 1.96025 254.442 4.28979C258.457 6.6004 261.535 9.92426 263.675 14.2614C265.815 18.5796 266.885 23.75 266.885 29.7727C266.885 35.8334 265.805 41.0512 263.646 45.4262C261.487 49.7822 258.343 53.1345 254.214 55.483C250.086 57.8125 245.067 58.9773 239.158 58.9773ZM228.249 52.7273H238.703C243.514 52.7273 247.5 51.7993 250.663 49.9432C253.826 48.0871 256.184 45.4451 257.737 42.0171C259.29 38.589 260.067 34.5076 260.067 29.7727C260.067 25.0758 259.3 21.0322 257.766 17.6421C256.232 14.233 253.94 11.6193 250.891 9.80116C247.841 7.96404 244.044 7.04548 239.499 7.04548H228.249V52.7273ZM294.703 58.9773V0.795475H329.817V7.04548H301.749V26.7046H327.999V32.9546H301.749V52.7273H330.271V58.9773H294.703Z" fill="white"/>
</svg>
